<svg width="40" height="44" viewBox="0 0 40 44" fill="none" xmlns="http://www.w3.org/2000/svg">
<g id="1" clip-path="url(#clip0_6317_9)">
<path id="Vector" fill-rule="evenodd" clip-rule="evenodd" d="M14.8435 13.835L12.4829 17.9162L10.2367 14.02L12.5856 9.93879H28.9926L32.4763 3.8963H9.09898L4.49225 11.8869C7.94805 17.857 11.3985 23.827 14.8435 29.7971H21.8109C20.061 26.768 18.312 23.7395 16.564 20.7114L16.0796 19.8731H32.0476L38.9151 31.7643L32.0476 43.6365H6.85289L0.0558404 31.6498L3.46906 25.7218L5.72985 29.6166L4.50695 31.7496L9.11368 39.7402H29.7883L34.4097 31.7496L29.803 23.759H22.8356C24.3134 26.333 25.7922 28.9065 27.272 31.4795L27.4394 31.7452L26.3163 33.6933H12.5974C8.44473 26.5126 4.29748 19.3372 0.155622 12.1673L0 11.8825L6.85289 -0.00872803H39.2411L31.2563 13.835H14.8435Z" fill="#7F46F0"/>
</g>
<defs>
<clipPath id="clip0_6317_9">
<rect width="39.2425" height="43.6364" fill="white"/>
</clipPath>
</defs>
</svg>
