<svg width="49" height="48" viewBox="0 0 49 48" fill="none" xmlns="http://www.w3.org/2000/svg">
<g id="Frame" clip-path="url(#clip0_6317_207)">
<path id="Vector" fill-rule="evenodd" clip-rule="evenodd" d="M26.7092 47.0853C31.9041 46.4788 36.7423 44.1369 40.4406 40.4386C44.1389 36.7403 46.4807 31.9021 47.0872 26.7073H38.3565C37.8058 29.5903 36.4005 32.2411 34.3233 34.3149C32.2462 36.3887 29.5932 37.7896 26.7092 38.3356V47.0853Z" fill="#F7936F"/>
<path id="Vector_2" fill-rule="evenodd" clip-rule="evenodd" d="M34.4646 3.24608L34.5195 3.21011C40.1689 -0.0359779 44.7369 -0.990521 46.8637 1.13818C52.8805 7.1531 35.9133 25.8626 30.887 30.8889C27.8643 33.9205 24.661 36.7665 21.2946 39.4113V47.0796C18.5881 46.7723 15.9584 45.9834 13.5298 44.7501L13.4748 44.7861C7.82544 48.0322 3.25939 48.9867 1.13069 46.8693C-1.78587 43.9528 1.62681 37.239 3.24038 34.4683C2.01475 32.0366 1.2263 29.4083 0.910967 26.7035H9.66057C10.0432 28.7342 10.8525 30.6607 12.035 32.3554C13.2175 34.0501 14.7462 35.4746 16.5202 36.5345C15.5108 37.2675 14.4843 37.9644 13.4199 38.6178C11.8613 39.6083 10.2477 40.5438 8.57733 41.3866C7.27004 40.2289 6.10075 38.9243 5.09264 37.4985C3.33134 40.8923 2.74425 43.3865 3.67982 44.3164C7.69671 48.2935 25.7641 31.6976 28.7356 28.7261C31.8992 25.5667 34.8583 22.2091 37.5951 18.6735C36.6933 16.3688 35.2202 14.3313 33.3142 12.7527C31.4082 11.174 29.132 10.1061 26.6997 9.64925V0.899554C29.4067 1.20412 32.0369 1.99317 34.4646 3.22902V3.24608ZM42.9017 10.492C44.663 7.0982 45.2501 4.60398 44.3145 3.67409C43.3789 2.74421 40.9056 3.34457 37.5099 5.10587C39.5974 6.58735 41.4202 8.41016 42.9017 10.4977V10.492Z" fill="#F16063"/>
<path id="Vector_3" fill-rule="evenodd" clip-rule="evenodd" d="M21.2984 0.916687C16.1034 1.52359 11.2652 3.86591 7.56697 7.5645C3.86872 11.2631 1.52683 16.1015 0.92041 21.2966H9.6701C10.2133 18.4132 11.6137 15.7607 13.6883 13.6858C15.7628 11.6109 18.4151 10.21 21.2984 9.66633V0.916687Z" fill="#F7936F"/>
</g>
<defs>
<clipPath id="clip0_6317_207">
<rect width="48.142" height="48" fill="white"/>
</clipPath>
</defs>
</svg>
