<svg width="123" height="25" viewBox="0 0 123 25" fill="none" xmlns="http://www.w3.org/2000/svg">
<g id="JIGGLE">
<path d="M14.0547 18.1709C14.0547 20.4516 13.5195 22.1272 12.4489 23.1978C11.3784 24.2683 9.726 24.8036 7.49182 24.8036C5.28091 24.8036 2.93037 24.6872 0.440186 24.4545V19.7418C2.25546 19.8581 4.11728 19.9163 6.02564 19.9163C6.56091 19.9163 6.97982 19.765 7.28237 19.4625C7.60819 19.1367 7.7711 18.7061 7.7711 18.1709V4.9054H3.23291V0.0181274H14.0547V18.1709Z" fill="#110F14"/>
<path d="M29.7625 24.4545H17.1952V19.5672H20.337V4.9054H17.1952V0.0181274H29.7625V4.9054H26.6206V19.5672H29.7625V24.4545Z" fill="#110F14"/>
<path d="M53.847 23.9309C48.4012 24.5127 43.3976 24.8036 38.8361 24.8036C36.5554 24.8036 34.8797 24.2683 33.8092 23.1978C32.7386 22.1272 32.2034 20.4516 32.2034 18.1709V6.99995C32.2034 4.55631 32.7503 2.78758 33.8441 1.69377C34.9612 0.576673 36.7416 0.0181274 39.1852 0.0181274H51.7525V4.9054H40.5815C39.1852 4.9054 38.487 5.60358 38.487 6.99995V18.1709C38.487 18.7061 38.6383 19.1367 38.9408 19.4625C39.2666 19.765 39.6972 19.9163 40.2325 19.9163C42.9088 19.9163 45.3525 19.8581 47.5634 19.7418V14.6799H43.0252V10.4909H53.847V23.9309Z" fill="#110F14"/>
<path d="M78.2902 23.9309C72.8444 24.5127 67.8407 24.8036 63.2793 24.8036C60.9986 24.8036 59.3229 24.2683 58.2524 23.1978C57.1818 22.1272 56.6465 20.4516 56.6465 18.1709V6.99995C56.6465 4.55631 57.1935 2.78758 58.2873 1.69377C59.4044 0.576673 61.1847 0.0181274 63.6284 0.0181274H76.1956V4.9054H65.0247C63.6284 4.9054 62.9302 5.60358 62.9302 6.99995V18.1709C62.9302 18.7061 63.0815 19.1367 63.384 19.4625C63.7098 19.765 64.1404 19.9163 64.6756 19.9163C67.352 19.9163 69.7956 19.8581 72.0066 19.7418V14.6799H67.4684V10.4909H78.2902V23.9309Z" fill="#110F14"/>
<path d="M88.0716 19.5672H100.813V24.4545H81.7879V0.0181274H88.0716V19.5672Z" fill="#110F14"/>
<path d="M122.64 24.4545H103.265V0.0181274H122.64V4.9054H109.549V9.61813H119.847V14.5054H109.549V19.5672H122.64V24.4545Z" fill="#110F14"/>
</g>
</svg>
