<svg width="117" height="21" viewBox="0 0 117 21" fill="none" xmlns="http://www.w3.org/2000/svg">
<g id="resecurb">
<path d="M3.9899 8.152C4.93245 6.68582 6.59063 5.95273 8.96445 5.95273V9.06837C8.68518 9.016 8.43209 8.98982 8.20518 8.98982C6.931 8.98982 5.93609 9.36509 5.22045 10.1156C4.50481 10.8487 4.147 11.9135 4.147 13.3098V20.0909H0.874268V6.10982H3.9899V8.152Z" fill="#1B1E59"/>
<path d="M24.7562 13.1789C24.7562 13.4058 24.7387 13.7287 24.7038 14.1476H13.7336C13.9256 15.1775 14.4231 15.9978 15.226 16.6087C16.0464 17.2022 17.0587 17.4989 18.2631 17.4989C19.7991 17.4989 21.0645 16.9927 22.0595 15.9804L23.8136 17.9964C23.1853 18.7469 22.3911 19.3142 21.4311 19.6982C20.4711 20.0822 19.3889 20.2742 18.1845 20.2742C16.6485 20.2742 15.2958 19.9687 14.1264 19.3578C12.9569 18.7469 12.0493 17.9004 11.4034 16.8182C10.7751 15.7185 10.4609 14.4793 10.4609 13.1004C10.4609 11.7389 10.7664 10.5171 11.3773 9.43491C12.0056 8.33528 12.8696 7.48 13.9693 6.86909C15.0689 6.25818 16.3082 5.95273 17.6871 5.95273C19.0485 5.95273 20.2616 6.25818 21.3264 6.86909C22.4085 7.46255 23.2464 8.30909 23.8398 9.40873C24.4507 10.4909 24.7562 11.7476 24.7562 13.1789ZM17.6871 8.57091C16.6398 8.57091 15.7496 8.88509 15.0165 9.51346C14.3009 10.1244 13.8645 10.9447 13.7074 11.9745H21.6405C21.5009 10.9622 21.0733 10.1418 20.3576 9.51346C19.642 8.88509 18.7518 8.57091 17.6871 8.57091Z" fill="#1B1E59"/>
<path d="M32.2198 20.2742C31.0853 20.2742 29.9769 20.1258 28.8947 19.8291C27.8126 19.5324 26.9486 19.1571 26.3027 18.7033L27.5595 16.216C28.1878 16.6349 28.9384 16.9753 29.8111 17.2371C30.7013 17.4815 31.574 17.6036 32.4293 17.6036C34.3842 17.6036 35.3617 17.0887 35.3617 16.0589C35.3617 15.5702 35.1086 15.2298 34.6024 15.0378C34.1137 14.8458 33.3195 14.6625 32.2198 14.488C31.0678 14.3135 30.1253 14.1127 29.3922 13.8858C28.6766 13.6589 28.0482 13.2662 27.5071 12.7076C26.9835 12.1316 26.7217 11.3375 26.7217 10.3251C26.7217 8.99855 27.2715 7.94255 28.3711 7.15709C29.4882 6.35418 30.9893 5.95273 32.8744 5.95273C33.8344 5.95273 34.7944 6.06618 35.7544 6.29309C36.7144 6.50255 37.4998 6.79055 38.1107 7.15709L36.854 9.64437C35.6671 8.94618 34.3318 8.59709 32.8482 8.59709C31.8882 8.59709 31.1551 8.74546 30.6489 9.04218C30.1602 9.32146 29.9158 9.69673 29.9158 10.168C29.9158 10.6916 30.1777 11.0669 30.7013 11.2938C31.2424 11.5033 32.0715 11.704 33.1886 11.896C34.3057 12.0705 35.222 12.2713 35.9377 12.4982C36.6533 12.7251 37.2642 13.1091 37.7704 13.6502C38.294 14.1913 38.5558 14.9593 38.5558 15.9542C38.5558 17.2633 37.9886 18.3105 36.854 19.096C35.7195 19.8815 34.1747 20.2742 32.2198 20.2742Z" fill="#1B1E59"/>
<path d="M54.5175 13.1789C54.5175 13.4058 54.5001 13.7287 54.4652 14.1476H43.495C43.687 15.1775 44.1845 15.9978 44.9874 16.6087C45.8077 17.2022 46.8201 17.4989 48.0245 17.4989C49.5605 17.4989 50.8259 16.9927 51.8208 15.9804L53.575 17.9964C52.9466 18.7469 52.1525 19.3142 51.1925 19.6982C50.2325 20.0822 49.1503 20.2742 47.9459 20.2742C46.4099 20.2742 45.0572 19.9687 43.8877 19.3578C42.7183 18.7469 41.8106 17.9004 41.1648 16.8182C40.5364 15.7185 40.2223 14.4793 40.2223 13.1004C40.2223 11.7389 40.5277 10.5171 41.1386 9.43491C41.767 8.33528 42.631 7.48 43.7306 6.86909C44.8303 6.25818 46.0695 5.95273 47.4485 5.95273C48.8099 5.95273 50.023 6.25818 51.0877 6.86909C52.1699 7.46255 53.0077 8.30909 53.6012 9.40873C54.2121 10.4909 54.5175 11.7476 54.5175 13.1789ZM47.4485 8.57091C46.4012 8.57091 45.511 8.88509 44.7779 9.51346C44.0623 10.1244 43.6259 10.9447 43.4688 11.9745H51.4019C51.2623 10.9622 50.8346 10.1418 50.119 9.51346C49.4034 8.88509 48.5132 8.57091 47.4485 8.57091Z" fill="#1B1E59"/>
<path d="M64.0757 20.2742C62.627 20.2742 61.3267 19.9687 60.1747 19.3578C59.0227 18.7469 58.1237 17.9004 57.4779 16.8182C56.8321 15.7185 56.5092 14.4793 56.5092 13.1004C56.5092 11.7215 56.8321 10.4909 57.4779 9.40873C58.1237 8.32655 59.0139 7.48 60.1485 6.86909C61.3005 6.25818 62.6096 5.95273 64.0757 5.95273C65.4547 5.95273 66.659 6.232 67.6888 6.79055C68.7361 7.34909 69.5216 8.152 70.0452 9.19928L67.5317 10.6655C67.1303 10.0196 66.6241 9.53964 66.0132 9.22546C65.4197 8.89382 64.7652 8.728 64.0496 8.728C62.8277 8.728 61.8154 9.12946 61.0125 9.93237C60.2096 10.7178 59.8081 11.7738 59.8081 13.1004C59.8081 14.4269 60.2008 15.4916 60.9863 16.2945C61.7892 17.08 62.8103 17.4727 64.0496 17.4727C64.7652 17.4727 65.4197 17.3156 66.0132 17.0015C66.6241 16.6698 67.1303 16.1811 67.5317 15.5353L70.0452 17.0015C69.5041 18.0487 68.7099 18.8604 67.6627 19.4364C66.6328 19.9949 65.4372 20.2742 64.0757 20.2742Z" fill="#1B1E59"/>
<path d="M86.4103 6.10982V20.0909H83.2946V18.3105C82.771 18.9389 82.1165 19.4276 81.331 19.7767C80.5455 20.1084 79.699 20.2742 78.7914 20.2742C76.9237 20.2742 75.4488 19.7593 74.3666 18.7295C73.3019 17.6822 72.7695 16.1375 72.7695 14.0953V6.10982H76.0423V13.6502C76.0423 14.9069 76.3215 15.8495 76.8801 16.4778C77.4561 17.0887 78.2677 17.3942 79.315 17.3942C80.4845 17.3942 81.4095 17.0364 82.0903 16.3207C82.7885 15.5876 83.1375 14.5404 83.1375 13.1789V6.10982H86.4103Z" fill="#1B1E59"/>
<path d="M93.8109 8.152C94.7535 6.68582 96.4117 5.95273 98.7855 5.95273V9.06837C98.5062 9.016 98.2531 8.98982 98.0262 8.98982C96.752 8.98982 95.7571 9.36509 95.0415 10.1156C94.3258 10.8487 93.968 11.9135 93.968 13.3098V20.0909H90.6953V6.10982H93.8109V8.152Z" fill="#1B1E59"/>
<path d="M109.312 5.95273C110.673 5.95273 111.886 6.24946 112.951 6.84291C114.033 7.43637 114.88 8.27418 115.49 9.35637C116.101 10.4385 116.407 11.6865 116.407 13.1004C116.407 14.5142 116.101 15.7709 115.49 16.8705C114.88 17.9527 114.033 18.7905 112.951 19.384C111.886 19.9775 110.673 20.2742 109.312 20.2742C108.352 20.2742 107.47 20.1084 106.667 19.7767C105.882 19.4451 105.219 18.9476 104.677 18.2844V20.0909H101.562V0.664001H104.834V7.81164C105.393 7.20073 106.048 6.73818 106.798 6.424C107.566 6.10982 108.404 5.95273 109.312 5.95273ZM108.945 17.4727C110.149 17.4727 111.136 17.0713 111.904 16.2684C112.689 15.4655 113.082 14.4095 113.082 13.1004C113.082 11.7913 112.689 10.7353 111.904 9.93237C111.136 9.12946 110.149 8.728 108.945 8.728C108.16 8.728 107.453 8.91128 106.824 9.27782C106.196 9.62691 105.698 10.1331 105.332 10.7964C104.965 11.4596 104.782 12.2276 104.782 13.1004C104.782 13.9731 104.965 14.7411 105.332 15.4044C105.698 16.0676 106.196 16.5825 106.824 16.9491C107.453 17.2982 108.16 17.4727 108.945 17.4727Z" fill="#1B1E59"/>
</g>
</svg>
