<svg width="103" height="29" viewBox="0 0 103 29" fill="none" xmlns="http://www.w3.org/2000/svg">
<g id="symtric">
<path d="M0.481344 7.54835C0.481344 15.4029 8.92498 16.4633 8.92498 22.1185C8.92498 24.0822 8.06098 24.7891 6.68644 24.7891C5.31189 24.7891 4.44789 24.0822 4.44789 22.1185V20.1549H0.363525V21.8436C0.363525 26.2422 2.5628 28.7556 6.80425 28.7556C11.0457 28.7556 13.245 26.2422 13.245 21.8436C13.245 13.9891 4.80134 12.9287 4.80134 7.27344C4.80134 5.30981 5.5868 4.56362 6.96134 4.56362C8.33589 4.56362 9.12134 5.30981 9.12134 7.27344V8.41235H13.2057V7.54835C13.2057 3.14981 11.0457 0.636353 6.84353 0.636353C2.64134 0.636353 0.481344 3.14981 0.481344 7.54835Z" fill="#15003E"/>
<path d="M19.4967 28.4414H23.8167V19.3302L29.2756 0.950533H25.152L21.8531 13.4785L18.5542 0.950533H14.0378L19.4967 19.3302V28.4414Z" fill="#15003E"/>
<path d="M36.9921 0.950533H30.9834V28.4414H34.7535V9.00144L37.9739 28.4414H42.0583L45.043 8.72653V28.4414H49.1274V0.950533H43.1186L40.1732 20.4691L36.9921 0.950533Z" fill="#15003E"/>
<path d="M51.0131 4.87781H55.5294V28.4414H59.8494V4.87781H64.3658V0.950533H51.0131V4.87781Z" fill="#15003E"/>
<path d="M79.6997 28.4414C79.2677 27.4204 79.2284 26.4385 79.2284 25.1033V20.8618C79.2284 17.9949 78.5215 15.9134 76.3615 15.0102C78.2858 14.1069 79.1891 12.2611 79.1891 9.43344V7.27344C79.1891 3.03199 77.2647 0.950533 72.7876 0.950533H66.2684V28.4414H70.5884V17.2487H72.0807C74.0444 17.2487 74.9084 18.1913 74.9084 20.744V25.064C74.9084 27.3025 75.0655 27.7345 75.3011 28.4414H79.6997ZM72.6698 4.87781C74.2015 4.87781 74.8691 5.74181 74.8691 7.70544V10.4153C74.8691 12.6145 73.8873 13.3214 72.2771 13.3214H70.5884V4.87781H72.6698Z" fill="#15003E"/>
<path d="M82.0695 28.4414H86.3895V0.950533H82.0695V28.4414Z" fill="#15003E"/>
<path d="M97.9918 18.1913V22.1185C97.9918 24.0822 97.1278 24.7891 95.7533 24.7891C94.3788 24.7891 93.5148 24.0822 93.5148 22.1185V7.27344C93.5148 5.30981 94.3788 4.56362 95.7533 4.56362C97.1278 4.56362 97.9918 5.30981 97.9918 7.27344V10.2189H102.076V7.54835C102.076 3.14981 99.8769 0.636353 95.6355 0.636353C91.394 0.636353 89.1948 3.14981 89.1948 7.54835V21.8436C89.1948 26.2422 91.394 28.7556 95.6355 28.7556C99.8769 28.7556 102.076 26.2422 102.076 21.8436V18.1913H97.9918Z" fill="#15003E"/>
</g>
</svg>
