<svg width="120" height="34" viewBox="0 0 120 34" fill="none" xmlns="http://www.w3.org/2000/svg">
<g id="Wishelp">
<path d="M24.6136 19.5568C24.6136 20.5682 24.4205 21.5228 24.0341 22.4205C23.6591 23.3068 23.1364 24.0853 22.4659 24.7557C21.8068 25.4148 21.0284 25.9375 20.1307 26.3239C19.2443 26.6989 18.2955 26.8864 17.2841 26.8864C16.375 26.8864 15.5 26.7273 14.6591 26.4091C13.8295 26.0909 13.0795 25.625 12.4091 25.0114C11.7386 25.625 10.983 26.0909 10.142 26.4091C9.30114 26.7273 8.42614 26.8864 7.51705 26.8864C6.50568 26.8864 5.55114 26.6989 4.65341 26.3239C3.76705 25.9375 2.98864 25.4148 2.31818 24.7557C1.65909 24.0853 1.13636 23.3068 0.75 22.4205C0.375 21.5228 0.1875 20.5682 0.1875 19.5568V2.10229H5.07955V19.5568C5.07955 19.8978 5.14205 20.2216 5.26705 20.5284C5.39205 20.8239 5.5625 21.0853 5.77841 21.3125C6.00568 21.5284 6.26705 21.6989 6.5625 21.8239C6.85795 21.9489 7.17614 22.0114 7.51705 22.0114C7.85795 22.0114 8.17614 21.9489 8.47159 21.8239C8.76705 21.6989 9.02273 21.5284 9.23864 21.3125C9.46591 21.0853 9.64205 20.8239 9.76705 20.5284C9.89205 20.2216 9.95455 19.8978 9.95455 19.5568V2.10229H14.8466V19.5568C14.8466 19.8978 14.9091 20.2216 15.0341 20.5284C15.1591 20.8239 15.3295 21.0853 15.5455 21.3125C15.7727 21.5284 16.0341 21.6989 16.3295 21.8239C16.625 21.9489 16.9432 22.0114 17.2841 22.0114C17.625 22.0114 17.9432 21.9489 18.2386 21.8239C18.5341 21.6989 18.7898 21.5284 19.0057 21.3125C19.233 21.0853 19.4091 20.8239 19.5341 20.5284C19.6705 20.2216 19.7386 19.8978 19.7386 19.5568V2.10229H24.6136V19.5568Z" fill="#16192C"/>
<path d="M33.9886 3.32957C33.9886 3.76139 33.9034 4.1648 33.733 4.5398C33.5739 4.9148 33.3523 5.24434 33.0682 5.52843C32.7841 5.80116 32.4489 6.02275 32.0625 6.1932C31.6875 6.3523 31.2841 6.43184 30.8523 6.43184C30.4205 6.43184 30.0114 6.3523 29.625 6.1932C29.25 6.02275 28.9205 5.80116 28.6364 5.52843C28.3636 5.24434 28.142 4.9148 27.9716 4.5398C27.8125 4.1648 27.733 3.76139 27.733 3.32957C27.733 2.90911 27.8125 2.51139 27.9716 2.13639C28.142 1.75002 28.3636 1.42048 28.6364 1.14775C28.9205 0.863659 29.25 0.642068 29.625 0.482977C30.0114 0.312522 30.4205 0.227295 30.8523 0.227295C31.2841 0.227295 31.6875 0.312522 32.0625 0.482977C32.4489 0.642068 32.7841 0.863659 33.0682 1.14775C33.3523 1.42048 33.5739 1.75002 33.733 2.13639C33.9034 2.51139 33.9886 2.90911 33.9886 3.32957ZM33.1875 26.5455H28.5V8.2898H33.1875V26.5455Z" fill="#16192C"/>
<path d="M46.7727 26.5455H36.1364V21.9091H46.7727C47.0909 21.9091 47.3636 21.7955 47.5909 21.5682C47.8182 21.3409 47.9318 21.0682 47.9318 20.75C47.9318 20.4205 47.8182 20.2046 47.5909 20.1023C47.3636 20 47.0909 19.9489 46.7727 19.9489H41.9318C41.125 19.9489 40.3693 19.7955 39.6648 19.4887C38.9602 19.1818 38.3466 18.7671 37.8239 18.2443C37.3011 17.7102 36.8864 17.0909 36.5795 16.3864C36.2841 15.6818 36.1364 14.9262 36.1364 14.1193C36.1364 13.3125 36.2841 12.5568 36.5795 11.8523C36.8864 11.1477 37.3011 10.5341 37.8239 10.0114C38.3466 9.48866 38.9602 9.07957 39.6648 8.78411C40.3693 8.4773 41.125 8.32389 41.9318 8.32389H51.358V12.9602H41.9318C41.6136 12.9602 41.3409 13.0739 41.1136 13.3012C40.8864 13.5284 40.7727 13.8012 40.7727 14.1193C40.7727 14.4489 40.8864 14.733 41.1136 14.9716C41.3409 15.1989 41.6136 15.3125 41.9318 15.3125H46.7727C47.5682 15.3125 48.3182 15.4489 49.0227 15.7216C49.7273 15.983 50.3409 16.3523 50.8636 16.8296C51.3864 17.3068 51.8011 17.8807 52.108 18.5512C52.4148 19.2216 52.5682 19.9546 52.5682 20.75C52.5682 21.5568 52.4148 22.3125 52.108 23.0171C51.8011 23.7103 51.3864 24.3239 50.8636 24.858C50.3409 25.3807 49.7273 25.7955 49.0227 26.1023C48.3182 26.3978 47.5682 26.5455 46.7727 26.5455Z" fill="#16192C"/>
<path d="M59.7102 26.5455H55.0568V1.02843H59.7102V9.09093C60.267 8.67048 60.8409 8.37502 61.4318 8.20457C62.0227 8.02275 62.625 7.93184 63.2386 7.93184C64.3636 7.93184 65.4205 8.14775 66.4091 8.57957C67.3977 9.00002 68.2557 9.58525 68.983 10.3352C69.7216 11.0739 70.3011 11.9432 70.7216 12.9432C71.1534 13.9318 71.3693 14.9887 71.3693 16.1137V26.5455H66.6818V16.1137H66.7159C66.7159 15.6364 66.625 15.1875 66.4432 14.7671C66.2614 14.3352 66.0114 13.9602 65.6932 13.6421C65.375 13.3239 65.0057 13.0739 64.5852 12.8921C64.1648 12.7102 63.7159 12.6193 63.2386 12.6193C62.75 12.6193 62.2898 12.7102 61.858 12.8921C61.4261 13.0739 61.0511 13.3239 60.733 13.6421C60.4148 13.9602 60.1648 14.3352 59.983 14.7671C59.8011 15.1875 59.7102 15.6364 59.7102 16.1137V26.5455Z" fill="#16192C"/>
<path d="M81.9545 22.0796C82.1364 22.1364 82.3182 22.1762 82.5 22.1989C82.6818 22.2103 82.8636 22.2159 83.0455 22.2159C83.5 22.2159 83.9375 22.1534 84.358 22.0284C84.7784 21.9034 85.1705 21.7273 85.5341 21.5C85.9091 21.2614 86.2386 20.9773 86.5227 20.6478C86.8182 20.3068 87.0568 19.9318 87.2386 19.5228L90.6477 22.9489C90.2159 23.5625 89.7159 24.1137 89.1477 24.6023C88.5909 25.0909 87.983 25.5057 87.3239 25.8466C86.6761 26.1875 85.9886 26.4432 85.2614 26.6137C84.5455 26.7955 83.8068 26.8864 83.0455 26.8864C81.7614 26.8864 80.5511 26.6478 79.4148 26.1705C78.2898 25.6932 77.3011 25.0284 76.4489 24.1762C75.608 23.3239 74.9432 22.3125 74.4545 21.1421C73.9659 19.9603 73.7216 18.6648 73.7216 17.2557C73.7216 15.8125 73.9659 14.4943 74.4545 13.3012C74.9432 12.108 75.608 11.0909 76.4489 10.25C77.3011 9.40911 78.2898 8.7557 79.4148 8.2898C80.5511 7.82389 81.7614 7.59093 83.0455 7.59093C83.8068 7.59093 84.5511 7.68184 85.2784 7.86366C86.0057 8.04548 86.6932 8.30684 87.3409 8.64775C88 8.98866 88.6136 9.40911 89.1818 9.90911C89.75 10.3977 90.25 10.9489 90.6818 11.5625L81.9545 22.0796ZM84.3409 12.483C84.125 12.4034 83.9091 12.3523 83.6932 12.3296C83.4886 12.3068 83.2727 12.2955 83.0455 12.2955C82.4091 12.2955 81.8068 12.4148 81.2386 12.6534C80.6818 12.8807 80.1932 13.2102 79.7727 13.6421C79.3636 14.0739 79.0398 14.5966 78.8011 15.2102C78.5625 15.8125 78.4432 16.4943 78.4432 17.2557C78.4432 17.4262 78.4489 17.6193 78.4602 17.8352C78.483 18.0512 78.5114 18.2728 78.5455 18.5C78.5909 18.7159 78.642 18.9262 78.6989 19.1307C78.7557 19.3353 78.8295 19.5171 78.9205 19.6762L84.3409 12.483Z" fill="#16192C"/>
<path d="M97.7216 26.5455H93.0341V1.02843H97.7216V26.5455Z" fill="#16192C"/>
<path d="M105.972 33.5H101.284V8.2898H102.409L104.267 10.4887C104.688 10.0909 105.148 9.71593 105.648 9.36366C106.148 9.01139 106.665 8.71025 107.199 8.46025C107.744 8.19889 108.307 7.99434 108.886 7.84661C109.466 7.69889 110.051 7.62502 110.642 7.62502C111.926 7.62502 113.131 7.85798 114.256 8.32389C115.392 8.77843 116.381 9.42616 117.222 10.2671C118.074 11.108 118.744 12.125 119.233 13.3182C119.722 14.5 119.966 15.8125 119.966 17.2557C119.966 18.7557 119.722 20.108 119.233 21.3125C118.744 22.5057 118.074 23.5228 117.222 24.3637C116.381 25.1932 115.392 25.8296 114.256 26.2728C113.131 26.7159 111.926 26.9375 110.642 26.9375C110.233 26.9375 109.824 26.8921 109.415 26.8012C109.017 26.7103 108.619 26.5909 108.222 26.4432C107.835 26.2841 107.449 26.108 107.063 25.9148C106.688 25.7216 106.324 25.5228 105.972 25.3182V33.5ZM115.295 17.2557C115.295 16.483 115.17 15.7898 114.92 15.1762C114.682 14.5625 114.352 14.0455 113.932 13.625C113.511 13.1932 113.017 12.8637 112.449 12.6364C111.881 12.4091 111.278 12.2955 110.642 12.2955C110.006 12.2955 109.403 12.4091 108.835 12.6364C108.278 12.8637 107.79 13.1932 107.369 13.625C106.949 14.0455 106.614 14.5625 106.364 15.1762C106.125 15.7898 106.006 16.483 106.006 17.2557C106.006 17.9943 106.125 18.6705 106.364 19.2841C106.614 19.8978 106.949 20.4205 107.369 20.8523C107.79 21.2841 108.278 21.6193 108.835 21.858C109.403 22.0966 110.006 22.2159 110.642 22.2159C111.278 22.2159 111.881 22.0966 112.449 21.858C113.017 21.6193 113.511 21.2841 113.932 20.8523C114.352 20.4205 114.682 19.8978 114.92 19.2841C115.17 18.6705 115.295 17.9943 115.295 17.2557Z" fill="#16192C"/>
</g>
</svg>
